<mxfile host="www.draw.io" modified="2020-02-05T13:27:29.241Z" agent="Mozilla/5.0 (Windows NT 10.0; WOW64) AppleWebKit/537.36 (KHTML, like Gecko) Chrome/65.0.3325.181 Safari/537.36" etag="TB6wktmI42AT3AmbbunN" version="12.6.5" type="github">
  <diagram id="ViuxsVs0jhdlv3zUoUvD" name="Page-1">
    <mxGraphModel dx="1221" dy="687" grid="1" gridSize="10" guides="1" tooltips="1" connect="1" arrows="1" fold="1" page="1" pageScale="1" pageWidth="827" pageHeight="1169" math="0" shadow="0">
      <root>
        <mxCell id="0"/>
        <mxCell id="1" parent="0"/>
        <mxCell id="KdRfdlikvtDpbyzAhevV-1" value="小美联盟" style="text;html=1;strokeColor=none;fillColor=none;align=center;verticalAlign=middle;whiteSpace=wrap;rounded=0;" parent="1" vertex="1">
          <mxGeometry x="310" y="20" width="140" height="20" as="geometry"/>
        </mxCell>
        <mxCell id="KdRfdlikvtDpbyzAhevV-12" style="edgeStyle=orthogonalEdgeStyle;rounded=0;orthogonalLoop=1;jettySize=auto;html=1;entryX=1;entryY=0.5;entryDx=0;entryDy=0;" parent="1" source="KdRfdlikvtDpbyzAhevV-4" target="KdRfdlikvtDpbyzAhevV-10" edge="1">
          <mxGeometry relative="1" as="geometry">
            <Array as="points">
              <mxPoint x="630" y="280"/>
            </Array>
          </mxGeometry>
        </mxCell>
        <mxCell id="KdRfdlikvtDpbyzAhevV-4" value="wap" style="rounded=1;whiteSpace=wrap;html=1;" parent="1" vertex="1">
          <mxGeometry x="570" y="140" width="120" height="60" as="geometry"/>
        </mxCell>
        <mxCell id="KdRfdlikvtDpbyzAhevV-11" style="edgeStyle=orthogonalEdgeStyle;rounded=0;orthogonalLoop=1;jettySize=auto;html=1;entryX=0;entryY=0.5;entryDx=0;entryDy=0;" parent="1" source="KdRfdlikvtDpbyzAhevV-5" target="KdRfdlikvtDpbyzAhevV-10" edge="1">
          <mxGeometry relative="1" as="geometry">
            <Array as="points">
              <mxPoint x="280" y="280"/>
            </Array>
          </mxGeometry>
        </mxCell>
        <mxCell id="KdRfdlikvtDpbyzAhevV-5" value="小程序" style="rounded=1;whiteSpace=wrap;html=1;" parent="1" vertex="1">
          <mxGeometry x="220" y="140" width="120" height="60" as="geometry"/>
        </mxCell>
        <mxCell id="KdRfdlikvtDpbyzAhevV-7" style="edgeStyle=orthogonalEdgeStyle;rounded=0;orthogonalLoop=1;jettySize=auto;html=1;entryX=0.5;entryY=0;entryDx=0;entryDy=0;" parent="1" source="KdRfdlikvtDpbyzAhevV-6" target="KdRfdlikvtDpbyzAhevV-5" edge="1">
          <mxGeometry relative="1" as="geometry"/>
        </mxCell>
        <mxCell id="KdRfdlikvtDpbyzAhevV-8" style="edgeStyle=orthogonalEdgeStyle;rounded=0;orthogonalLoop=1;jettySize=auto;html=1;entryX=0.5;entryY=0;entryDx=0;entryDy=0;" parent="1" source="KdRfdlikvtDpbyzAhevV-6" target="KdRfdlikvtDpbyzAhevV-4" edge="1">
          <mxGeometry relative="1" as="geometry"/>
        </mxCell>
        <mxCell id="KdRfdlikvtDpbyzAhevV-6" value="扫码" style="rounded=1;whiteSpace=wrap;html=1;" parent="1" vertex="1">
          <mxGeometry x="400" y="50" width="120" height="60" as="geometry"/>
        </mxCell>
        <mxCell id="KdRfdlikvtDpbyzAhevV-13" style="edgeStyle=orthogonalEdgeStyle;rounded=0;orthogonalLoop=1;jettySize=auto;html=1;" parent="1" source="KdRfdlikvtDpbyzAhevV-10" edge="1">
          <mxGeometry relative="1" as="geometry">
            <mxPoint x="460" y="360" as="targetPoint"/>
          </mxGeometry>
        </mxCell>
        <mxCell id="KdRfdlikvtDpbyzAhevV-10" value="接入层" style="rounded=1;whiteSpace=wrap;html=1;" parent="1" vertex="1">
          <mxGeometry x="400" y="250" width="120" height="60" as="geometry"/>
        </mxCell>
        <mxCell id="KdRfdlikvtDpbyzAhevV-14" value="注册" style="text;html=1;strokeColor=none;fillColor=none;align=center;verticalAlign=middle;whiteSpace=wrap;rounded=0;" parent="1" vertex="1">
          <mxGeometry x="290" y="230" width="40" height="20" as="geometry"/>
        </mxCell>
        <mxCell id="KdRfdlikvtDpbyzAhevV-15" value="注册" style="text;html=1;strokeColor=none;fillColor=none;align=center;verticalAlign=middle;whiteSpace=wrap;rounded=0;" parent="1" vertex="1">
          <mxGeometry x="590" y="230" width="40" height="20" as="geometry"/>
        </mxCell>
        <mxCell id="KdRfdlikvtDpbyzAhevV-18" style="edgeStyle=orthogonalEdgeStyle;rounded=0;orthogonalLoop=1;jettySize=auto;html=1;" parent="1" source="KdRfdlikvtDpbyzAhevV-17" edge="1">
          <mxGeometry relative="1" as="geometry">
            <mxPoint x="460" y="480" as="targetPoint"/>
          </mxGeometry>
        </mxCell>
        <mxCell id="KdRfdlikvtDpbyzAhevV-46" style="edgeStyle=orthogonalEdgeStyle;rounded=0;orthogonalLoop=1;jettySize=auto;html=1;dashed=1;" parent="1" source="KdRfdlikvtDpbyzAhevV-17" edge="1">
          <mxGeometry relative="1" as="geometry">
            <mxPoint x="230" y="390" as="targetPoint"/>
          </mxGeometry>
        </mxCell>
        <mxCell id="KdRfdlikvtDpbyzAhevV-17" value="关系链底层处理关系链数据" style="rounded=1;whiteSpace=wrap;html=1;" parent="1" vertex="1">
          <mxGeometry x="400" y="360" width="120" height="60" as="geometry"/>
        </mxCell>
        <mxCell id="KdRfdlikvtDpbyzAhevV-19" value="建立关系链" style="rounded=1;whiteSpace=wrap;html=1;" parent="1" vertex="1">
          <mxGeometry x="400" y="480" width="120" height="60" as="geometry"/>
        </mxCell>
        <mxCell id="weVdjqVGFAg4G8JXfVWF-7" style="edgeStyle=orthogonalEdgeStyle;rounded=0;orthogonalLoop=1;jettySize=auto;html=1;entryX=0.5;entryY=0;entryDx=0;entryDy=0;" edge="1" parent="1" source="KdRfdlikvtDpbyzAhevV-20" target="weVdjqVGFAg4G8JXfVWF-6">
          <mxGeometry relative="1" as="geometry"/>
        </mxCell>
        <mxCell id="KdRfdlikvtDpbyzAhevV-20" value="oms" style="rounded=1;whiteSpace=wrap;html=1;" parent="1" vertex="1">
          <mxGeometry x="847.5" y="20" width="120" height="40" as="geometry"/>
        </mxCell>
        <mxCell id="KdRfdlikvtDpbyzAhevV-27" style="edgeStyle=orthogonalEdgeStyle;rounded=0;orthogonalLoop=1;jettySize=auto;html=1;" parent="1" source="KdRfdlikvtDpbyzAhevV-24" edge="1">
          <mxGeometry relative="1" as="geometry">
            <mxPoint x="1050" y="240" as="targetPoint"/>
          </mxGeometry>
        </mxCell>
        <mxCell id="weVdjqVGFAg4G8JXfVWF-11" style="edgeStyle=orthogonalEdgeStyle;rounded=0;orthogonalLoop=1;jettySize=auto;html=1;entryX=0.5;entryY=0;entryDx=0;entryDy=0;" edge="1" parent="1" source="KdRfdlikvtDpbyzAhevV-24" target="KdRfdlikvtDpbyzAhevV-32">
          <mxGeometry relative="1" as="geometry"/>
        </mxCell>
        <mxCell id="KdRfdlikvtDpbyzAhevV-24" value="判断是否已经是首" style="rhombus;whiteSpace=wrap;html=1;" parent="1" vertex="1">
          <mxGeometry x="837" y="200" width="140" height="80" as="geometry"/>
        </mxCell>
        <mxCell id="KdRfdlikvtDpbyzAhevV-28" value="false" style="text;html=1;strokeColor=none;fillColor=none;align=center;verticalAlign=middle;whiteSpace=wrap;rounded=0;" parent="1" vertex="1">
          <mxGeometry x="980" y="210" width="40" height="20" as="geometry"/>
        </mxCell>
        <mxCell id="KdRfdlikvtDpbyzAhevV-29" value="返回" style="rounded=1;whiteSpace=wrap;html=1;" parent="1" vertex="1">
          <mxGeometry x="1050" y="210" width="120" height="60" as="geometry"/>
        </mxCell>
        <mxCell id="KdRfdlikvtDpbyzAhevV-36" style="edgeStyle=orthogonalEdgeStyle;rounded=0;orthogonalLoop=1;jettySize=auto;html=1;entryX=1;entryY=0.5;entryDx=0;entryDy=0;" parent="1" source="KdRfdlikvtDpbyzAhevV-32" target="KdRfdlikvtDpbyzAhevV-19" edge="1">
          <mxGeometry relative="1" as="geometry">
            <Array as="points">
              <mxPoint x="910" y="510"/>
            </Array>
          </mxGeometry>
        </mxCell>
        <mxCell id="KdRfdlikvtDpbyzAhevV-32" value="是否大于配置订单限价金额" style="rhombus;whiteSpace=wrap;html=1;" parent="1" vertex="1">
          <mxGeometry x="842" y="330" width="130" height="80" as="geometry"/>
        </mxCell>
        <mxCell id="KdRfdlikvtDpbyzAhevV-37" value="更新收单状态" style="text;html=1;strokeColor=none;fillColor=none;align=center;verticalAlign=middle;whiteSpace=wrap;rounded=0;" parent="1" vertex="1">
          <mxGeometry x="680" y="480" width="100" height="20" as="geometry"/>
        </mxCell>
        <mxCell id="KdRfdlikvtDpbyzAhevV-47" value="提供报表统计数据" style="rounded=1;whiteSpace=wrap;html=1;" parent="1" vertex="1">
          <mxGeometry x="110" y="360" width="120" height="60" as="geometry"/>
        </mxCell>
        <mxCell id="weVdjqVGFAg4G8JXfVWF-8" style="edgeStyle=orthogonalEdgeStyle;rounded=0;orthogonalLoop=1;jettySize=auto;html=1;entryX=0.5;entryY=0;entryDx=0;entryDy=0;" edge="1" parent="1" source="weVdjqVGFAg4G8JXfVWF-6" target="KdRfdlikvtDpbyzAhevV-24">
          <mxGeometry relative="1" as="geometry"/>
        </mxCell>
        <mxCell id="weVdjqVGFAg4G8JXfVWF-6" value="&lt;span style=&quot;white-space: normal&quot;&gt;是否存在z的绑定关系链&lt;/span&gt;" style="rhombus;whiteSpace=wrap;html=1;" vertex="1" parent="1">
          <mxGeometry x="840" y="90" width="135" height="80" as="geometry"/>
        </mxCell>
        <mxCell id="weVdjqVGFAg4G8JXfVWF-13" value="binding_relation" style="swimlane;fontStyle=0;childLayout=stackLayout;horizontal=1;startSize=17;fillColor=#e0e0e0;horizontalStack=0;resizeParent=1;resizeParentMax=0;resizeLast=0;collapsible=1;marginBottom=0;swimlaneFillColor=#ffffff;align=center;fontSize=14;" vertex="1" parent="1">
          <mxGeometry x="190" y="610" width="160" height="196" as="geometry"/>
        </mxCell>
        <mxCell id="weVdjqVGFAg4G8JXfVWF-77" value="id" style="text;strokeColor=none;fillColor=none;spacingLeft=4;spacingRight=4;overflow=hidden;rotatable=0;points=[[0,0.5],[1,0.5]];portConstraint=eastwest;fontSize=12;" vertex="1" parent="weVdjqVGFAg4G8JXfVWF-13">
          <mxGeometry y="17" width="160" height="26" as="geometry"/>
        </mxCell>
        <mxCell id="weVdjqVGFAg4G8JXfVWF-14" value="user_id" style="text;strokeColor=none;fillColor=none;spacingLeft=4;spacingRight=4;overflow=hidden;rotatable=0;points=[[0,0.5],[1,0.5]];portConstraint=eastwest;fontSize=12;" vertex="1" parent="weVdjqVGFAg4G8JXfVWF-13">
          <mxGeometry y="43" width="160" height="26" as="geometry"/>
        </mxCell>
        <mxCell id="weVdjqVGFAg4G8JXfVWF-15" value="channel" style="text;strokeColor=none;fillColor=none;spacingLeft=4;spacingRight=4;overflow=hidden;rotatable=0;points=[[0,0.5],[1,0.5]];portConstraint=eastwest;fontSize=12;" vertex="1" parent="weVdjqVGFAg4G8JXfVWF-13">
          <mxGeometry y="69" width="160" height="26" as="geometry"/>
        </mxCell>
        <mxCell id="weVdjqVGFAg4G8JXfVWF-20" value="puser_id" style="text;strokeColor=none;fillColor=none;spacingLeft=4;spacingRight=4;overflow=hidden;rotatable=0;points=[[0,0.5],[1,0.5]];portConstraint=eastwest;fontSize=12;" vertex="1" parent="weVdjqVGFAg4G8JXfVWF-13">
          <mxGeometry y="95" width="160" height="26" as="geometry"/>
        </mxCell>
        <mxCell id="weVdjqVGFAg4G8JXfVWF-21" value="insert_time" style="text;strokeColor=none;fillColor=none;spacingLeft=4;spacingRight=4;overflow=hidden;rotatable=0;points=[[0,0.5],[1,0.5]];portConstraint=eastwest;fontSize=12;" vertex="1" parent="weVdjqVGFAg4G8JXfVWF-13">
          <mxGeometry y="121" width="160" height="26" as="geometry"/>
        </mxCell>
        <mxCell id="weVdjqVGFAg4G8JXfVWF-22" value="update_time" style="text;strokeColor=none;fillColor=none;spacingLeft=4;spacingRight=4;overflow=hidden;rotatable=0;points=[[0,0.5],[1,0.5]];portConstraint=eastwest;fontSize=12;" vertex="1" parent="weVdjqVGFAg4G8JXfVWF-13">
          <mxGeometry y="147" width="160" height="26" as="geometry"/>
        </mxCell>
        <mxCell id="weVdjqVGFAg4G8JXfVWF-23" value="status" style="text;strokeColor=none;fillColor=none;spacingLeft=4;spacingRight=4;overflow=hidden;rotatable=0;points=[[0,0.5],[1,0.5]];portConstraint=eastwest;fontSize=12;" vertex="1" parent="weVdjqVGFAg4G8JXfVWF-13">
          <mxGeometry y="173" width="160" height="23" as="geometry"/>
        </mxCell>
        <mxCell id="weVdjqVGFAg4G8JXfVWF-51" style="edgeStyle=orthogonalEdgeStyle;rounded=0;orthogonalLoop=1;jettySize=auto;html=1;entryX=0;entryY=0.5;entryDx=0;entryDy=0;dashed=1;" edge="1" parent="1" source="weVdjqVGFAg4G8JXfVWF-29" target="weVdjqVGFAg4G8JXfVWF-46">
          <mxGeometry relative="1" as="geometry">
            <Array as="points">
              <mxPoint x="550" y="570"/>
            </Array>
          </mxGeometry>
        </mxCell>
        <mxCell id="weVdjqVGFAg4G8JXfVWF-29" value="award_table" style="swimlane;fontStyle=0;childLayout=stackLayout;horizontal=1;startSize=26;fillColor=#e0e0e0;horizontalStack=0;resizeParent=1;resizeParentMax=0;resizeLast=0;collapsible=1;marginBottom=0;swimlaneFillColor=#ffffff;align=center;fontSize=14;" vertex="1" parent="1">
          <mxGeometry x="470" y="610" width="160" height="312" as="geometry"/>
        </mxCell>
        <mxCell id="weVdjqVGFAg4G8JXfVWF-76" value="id" style="text;strokeColor=none;fillColor=none;spacingLeft=4;spacingRight=4;overflow=hidden;rotatable=0;points=[[0,0.5],[1,0.5]];portConstraint=eastwest;fontSize=12;" vertex="1" parent="weVdjqVGFAg4G8JXfVWF-29">
          <mxGeometry y="26" width="160" height="26" as="geometry"/>
        </mxCell>
        <mxCell id="weVdjqVGFAg4G8JXfVWF-66" value="puser_id" style="text;strokeColor=none;fillColor=none;spacingLeft=4;spacingRight=4;overflow=hidden;rotatable=0;points=[[0,0.5],[1,0.5]];portConstraint=eastwest;fontSize=12;" vertex="1" parent="weVdjqVGFAg4G8JXfVWF-29">
          <mxGeometry y="52" width="160" height="26" as="geometry"/>
        </mxCell>
        <mxCell id="weVdjqVGFAg4G8JXfVWF-70" value="user_id" style="text;strokeColor=none;fillColor=none;spacingLeft=4;spacingRight=4;overflow=hidden;rotatable=0;points=[[0,0.5],[1,0.5]];portConstraint=eastwest;fontSize=12;" vertex="1" parent="weVdjqVGFAg4G8JXfVWF-29">
          <mxGeometry y="78" width="160" height="26" as="geometry"/>
        </mxCell>
        <mxCell id="weVdjqVGFAg4G8JXfVWF-32" value="order_id" style="text;strokeColor=none;fillColor=none;spacingLeft=4;spacingRight=4;overflow=hidden;rotatable=0;points=[[0,0.5],[1,0.5]];portConstraint=eastwest;fontSize=12;" vertex="1" parent="weVdjqVGFAg4G8JXfVWF-29">
          <mxGeometry y="104" width="160" height="26" as="geometry"/>
        </mxCell>
        <mxCell id="weVdjqVGFAg4G8JXfVWF-58" value="order_price" style="text;strokeColor=none;fillColor=none;spacingLeft=4;spacingRight=4;overflow=hidden;rotatable=0;points=[[0,0.5],[1,0.5]];portConstraint=eastwest;fontSize=12;" vertex="1" parent="weVdjqVGFAg4G8JXfVWF-29">
          <mxGeometry y="130" width="160" height="26" as="geometry"/>
        </mxCell>
        <mxCell id="weVdjqVGFAg4G8JXfVWF-65" value="award_price" style="text;strokeColor=none;fillColor=none;spacingLeft=4;spacingRight=4;overflow=hidden;rotatable=0;points=[[0,0.5],[1,0.5]];portConstraint=eastwest;fontSize=12;" vertex="1" parent="weVdjqVGFAg4G8JXfVWF-29">
          <mxGeometry y="156" width="160" height="26" as="geometry"/>
        </mxCell>
        <mxCell id="weVdjqVGFAg4G8JXfVWF-68" value="order_time" style="text;strokeColor=none;fillColor=none;spacingLeft=4;spacingRight=4;overflow=hidden;rotatable=0;points=[[0,0.5],[1,0.5]];portConstraint=eastwest;fontSize=12;" vertex="1" parent="weVdjqVGFAg4G8JXfVWF-29">
          <mxGeometry y="182" width="160" height="26" as="geometry"/>
        </mxCell>
        <mxCell id="weVdjqVGFAg4G8JXfVWF-69" value="award_status" style="text;strokeColor=none;fillColor=none;spacingLeft=4;spacingRight=4;overflow=hidden;rotatable=0;points=[[0,0.5],[1,0.5]];portConstraint=eastwest;fontSize=12;" vertex="1" parent="weVdjqVGFAg4G8JXfVWF-29">
          <mxGeometry y="208" width="160" height="26" as="geometry"/>
        </mxCell>
        <mxCell id="weVdjqVGFAg4G8JXfVWF-75" value="is_delete" style="text;strokeColor=none;fillColor=none;spacingLeft=4;spacingRight=4;overflow=hidden;rotatable=0;points=[[0,0.5],[1,0.5]];portConstraint=eastwest;fontSize=12;" vertex="1" parent="weVdjqVGFAg4G8JXfVWF-29">
          <mxGeometry y="234" width="160" height="26" as="geometry"/>
        </mxCell>
        <mxCell id="weVdjqVGFAg4G8JXfVWF-78" value="insert_time" style="text;strokeColor=none;fillColor=none;spacingLeft=4;spacingRight=4;overflow=hidden;rotatable=0;points=[[0,0.5],[1,0.5]];portConstraint=eastwest;fontSize=12;" vertex="1" parent="weVdjqVGFAg4G8JXfVWF-29">
          <mxGeometry y="260" width="160" height="26" as="geometry"/>
        </mxCell>
        <mxCell id="weVdjqVGFAg4G8JXfVWF-79" value="update_time" style="text;strokeColor=none;fillColor=none;spacingLeft=4;spacingRight=4;overflow=hidden;rotatable=0;points=[[0,0.5],[1,0.5]];portConstraint=eastwest;fontSize=12;" vertex="1" parent="weVdjqVGFAg4G8JXfVWF-29">
          <mxGeometry y="286" width="160" height="26" as="geometry"/>
        </mxCell>
        <mxCell id="weVdjqVGFAg4G8JXfVWF-43" style="edgeStyle=orthogonalEdgeStyle;rounded=0;orthogonalLoop=1;jettySize=auto;html=1;entryX=0.5;entryY=1;entryDx=0;entryDy=0;dashed=1;" edge="1" parent="1" source="weVdjqVGFAg4G8JXfVWF-37" target="KdRfdlikvtDpbyzAhevV-47">
          <mxGeometry relative="1" as="geometry">
            <Array as="points">
              <mxPoint x="840" y="970"/>
              <mxPoint x="50" y="970"/>
              <mxPoint x="50" y="480"/>
              <mxPoint x="170" y="480"/>
            </Array>
          </mxGeometry>
        </mxCell>
        <mxCell id="weVdjqVGFAg4G8JXfVWF-52" style="edgeStyle=orthogonalEdgeStyle;rounded=0;orthogonalLoop=1;jettySize=auto;html=1;entryX=1;entryY=0.5;entryDx=0;entryDy=0;dashed=1;" edge="1" parent="1" source="weVdjqVGFAg4G8JXfVWF-37" target="weVdjqVGFAg4G8JXfVWF-46">
          <mxGeometry relative="1" as="geometry">
            <Array as="points">
              <mxPoint x="840" y="570"/>
            </Array>
          </mxGeometry>
        </mxCell>
        <mxCell id="weVdjqVGFAg4G8JXfVWF-37" value="delivery_table" style="swimlane;fontStyle=0;childLayout=stackLayout;horizontal=1;startSize=26;fillColor=#e0e0e0;horizontalStack=0;resizeParent=1;resizeParentMax=0;resizeLast=0;collapsible=1;marginBottom=0;swimlaneFillColor=#ffffff;align=center;fontSize=14;" vertex="1" parent="1">
          <mxGeometry x="760" y="610" width="160" height="312" as="geometry"/>
        </mxCell>
        <mxCell id="weVdjqVGFAg4G8JXfVWF-82" value="id" style="text;strokeColor=none;fillColor=none;spacingLeft=4;spacingRight=4;overflow=hidden;rotatable=0;points=[[0,0.5],[1,0.5]];portConstraint=eastwest;fontSize=12;" vertex="1" parent="weVdjqVGFAg4G8JXfVWF-37">
          <mxGeometry y="26" width="160" height="26" as="geometry"/>
        </mxCell>
        <mxCell id="weVdjqVGFAg4G8JXfVWF-45" value="user_id" style="text;strokeColor=none;fillColor=none;spacingLeft=4;spacingRight=4;overflow=hidden;rotatable=0;points=[[0,0.5],[1,0.5]];portConstraint=eastwest;fontSize=12;" vertex="1" parent="weVdjqVGFAg4G8JXfVWF-37">
          <mxGeometry y="52" width="160" height="26" as="geometry"/>
        </mxCell>
        <mxCell id="weVdjqVGFAg4G8JXfVWF-38" value="order_id" style="text;strokeColor=none;fillColor=none;spacingLeft=4;spacingRight=4;overflow=hidden;rotatable=0;points=[[0,0.5],[1,0.5]];portConstraint=eastwest;fontSize=12;" vertex="1" parent="weVdjqVGFAg4G8JXfVWF-37">
          <mxGeometry y="78" width="160" height="26" as="geometry"/>
        </mxCell>
        <mxCell id="weVdjqVGFAg4G8JXfVWF-39" value="delivery_id" style="text;strokeColor=none;fillColor=none;spacingLeft=4;spacingRight=4;overflow=hidden;rotatable=0;points=[[0,0.5],[1,0.5]];portConstraint=eastwest;fontSize=12;" vertex="1" parent="weVdjqVGFAg4G8JXfVWF-37">
          <mxGeometry y="104" width="160" height="26" as="geometry"/>
        </mxCell>
        <mxCell id="weVdjqVGFAg4G8JXfVWF-40" value="price" style="text;strokeColor=none;fillColor=none;spacingLeft=4;spacingRight=4;overflow=hidden;rotatable=0;points=[[0,0.5],[1,0.5]];portConstraint=eastwest;fontSize=12;" vertex="1" parent="weVdjqVGFAg4G8JXfVWF-37">
          <mxGeometry y="130" width="160" height="26" as="geometry"/>
        </mxCell>
        <mxCell id="weVdjqVGFAg4G8JXfVWF-41" value="status" style="text;strokeColor=none;fillColor=none;spacingLeft=4;spacingRight=4;overflow=hidden;rotatable=0;points=[[0,0.5],[1,0.5]];portConstraint=eastwest;fontSize=12;" vertex="1" parent="weVdjqVGFAg4G8JXfVWF-37">
          <mxGeometry y="156" width="160" height="26" as="geometry"/>
        </mxCell>
        <mxCell id="weVdjqVGFAg4G8JXfVWF-42" value="is_delete" style="text;strokeColor=none;fillColor=none;spacingLeft=4;spacingRight=4;overflow=hidden;rotatable=0;points=[[0,0.5],[1,0.5]];portConstraint=eastwest;fontSize=12;" vertex="1" parent="weVdjqVGFAg4G8JXfVWF-37">
          <mxGeometry y="182" width="160" height="26" as="geometry"/>
        </mxCell>
        <mxCell id="weVdjqVGFAg4G8JXfVWF-67" value="order_time" style="text;strokeColor=none;fillColor=none;spacingLeft=4;spacingRight=4;overflow=hidden;rotatable=0;points=[[0,0.5],[1,0.5]];portConstraint=eastwest;fontSize=12;" vertex="1" parent="weVdjqVGFAg4G8JXfVWF-37">
          <mxGeometry y="208" width="160" height="26" as="geometry"/>
        </mxCell>
        <mxCell id="weVdjqVGFAg4G8JXfVWF-80" value="insert_time" style="text;strokeColor=none;fillColor=none;spacingLeft=4;spacingRight=4;overflow=hidden;rotatable=0;points=[[0,0.5],[1,0.5]];portConstraint=eastwest;fontSize=12;" vertex="1" parent="weVdjqVGFAg4G8JXfVWF-37">
          <mxGeometry y="234" width="160" height="26" as="geometry"/>
        </mxCell>
        <mxCell id="weVdjqVGFAg4G8JXfVWF-81" value="update_time" style="text;strokeColor=none;fillColor=none;spacingLeft=4;spacingRight=4;overflow=hidden;rotatable=0;points=[[0,0.5],[1,0.5]];portConstraint=eastwest;fontSize=12;" vertex="1" parent="weVdjqVGFAg4G8JXfVWF-37">
          <mxGeometry y="260" width="160" height="26" as="geometry"/>
        </mxCell>
        <mxCell id="weVdjqVGFAg4G8JXfVWF-83" value="site" style="text;strokeColor=none;fillColor=none;spacingLeft=4;spacingRight=4;overflow=hidden;rotatable=0;points=[[0,0.5],[1,0.5]];portConstraint=eastwest;fontSize=12;" vertex="1" parent="weVdjqVGFAg4G8JXfVWF-37">
          <mxGeometry y="286" width="160" height="26" as="geometry"/>
        </mxCell>
        <mxCell id="weVdjqVGFAg4G8JXfVWF-46" value="订单只记已支付、妥投、退货" style="text;html=1;strokeColor=none;fillColor=none;align=center;verticalAlign=middle;whiteSpace=wrap;rounded=0;" vertex="1" parent="1">
          <mxGeometry x="660" y="560" width="40" height="20" as="geometry"/>
        </mxCell>
        <mxCell id="weVdjqVGFAg4G8JXfVWF-74" value="增加一个状态已取消" style="text;html=1;strokeColor=none;fillColor=none;align=center;verticalAlign=middle;whiteSpace=wrap;rounded=0;" vertex="1" parent="1">
          <mxGeometry x="170" y="880" width="110" height="20" as="geometry"/>
        </mxCell>
      </root>
    </mxGraphModel>
  </diagram>
</mxfile>
